<?xml version="1.0" encoding="UTF-8" standalone="no"?>
<svg
   xmlns="http://www.w3.org/2000/svg"
   version="1.1"
   id="svg2"
   xml:space="preserve"
   width="600"
   height="600"><title
     id="title920">WPU Logo Stacked</title><g
     transform="matrix(4.1054915,0,0,-4.1054915,-142.08073,744.10446)"
     id="g10"><g
       transform="translate(169.9292,77.143)"
       id="g20"
       style="fill:#000000;fill-opacity:1"><path
         d="m 0,0 c -0.866,0.621 -1.207,0.856 -1.868,1.09 -0.826,0.272 -1.955,0.466 -3.036,0.466 -4.216,0 -7.127,-2.844 -7.127,-6.929 0,-2.18 0.815,-4.121 2.222,-5.526 1.402,-1.358 3.116,-1.939 5.833,-1.939 1.756,0 2.568,0.185 4.119,0.969 l 0.866,-2.185 c -2.109,-0.853 -3.742,-1.206 -5.565,-1.206 -6.231,0 -10.59,4.016 -10.59,9.736 0,5.445 4.43,9.575 10.323,9.575 2.364,0 4.195,-0.549 6.218,-1.795 z m -26.117,3.698 h 2.949 v -18.605 h -2.949 z m -16.23,-2.455 v -5.645 h 7.069 v -2.45 h -7.069 v -8.055 H -45.31 V 3.698 h 11.523 V 1.243 Z m -16.2,2.455 h 2.966 v -18.605 h -2.966 z M -66.91,0 c -0.866,0.621 -1.209,0.856 -1.87,1.09 -0.826,0.272 -1.947,0.466 -3.035,0.466 -4.21,0 -7.126,-2.844 -7.126,-6.929 0,-2.18 0.815,-4.121 2.22,-5.526 1.402,-1.358 3.11,-1.939 5.834,-1.939 1.755,0 2.568,0.185 4.136,0.969 l 0.849,-2.185 c -2.102,-0.853 -3.73,-1.206 -5.566,-1.206 -6.232,0 -10.589,4.016 -10.589,9.736 0,5.445 4.432,9.575 10.321,9.575 2.363,0 4.199,-0.549 6.227,-1.795 z m -28.654,1.007 -3.193,-8.319 h 6.344 z m 6.114,-15.914 -2.139,5.179 h -7.978 l -2.111,-5.179 h -2.948 l 7.581,19.077 h 2.925 l 7.59,-19.077 z m -25.884,16.15 h -3.193 v -6.307 c 0.468,-0.113 1.864,-0.387 3.583,-0.387 2.257,0 3.773,1.404 3.773,3.544 0,2.222 -1.207,3.15 -4.163,3.15 m 0.7,-9.149 c -1.477,0 -3.226,0.2 -3.893,0.394 v -7.395 h -2.96 V 3.698 h 6.464 c 4.437,0 6.809,-1.982 6.809,-5.718 0,-3.466 -2.639,-5.886 -6.42,-5.886 M -3.389,32.765 c -0.627,0.462 -0.86,0.509 -3.002,0.509 h -2.918 v -6.112 h 2.918 c 1.913,0 2.297,0.083 3.121,0.778 0.696,0.622 1.003,1.362 1.003,2.377 0,1.09 -0.387,1.902 -1.122,2.448 m 1.674,-15.648 -4.903,7.594 h -2.691 v -7.594 h -2.962 v 18.605 h 6.266 c 4.48,0 6.934,-1.869 6.934,-5.292 0,-2.882 -1.756,-5.058 -4.358,-5.492 l 5.137,-7.821 z m -28.498,0 v 18.605 h 11.522 v -2.448 h -8.56 v -5.371 h 7.082 v -2.454 h -7.082 v -5.877 h 8.801 v -2.455 z m -11.131,-0.232 -10.504,13.432 c -0.622,0.817 -0.861,1.207 -0.976,1.714 V 17.117 h -2.724 v 18.605 h 2.959 l 10.508,-13.227 c 0.35,-0.393 0.662,-1.133 0.737,-1.714 v 14.941 h 2.693 V 16.885 Z m -24.636,15.88 c -0.622,0.462 -0.857,0.509 -2.999,0.509 h -2.909 v -6.112 h 2.909 c 1.908,0 2.296,0.083 3.117,0.778 0.695,0.622 1.014,1.362 1.014,2.377 0,1.09 -0.387,1.902 -1.132,2.448 m 1.673,-15.648 -4.899,7.594 h -2.682 v -7.594 h -2.969 v 18.605 h 6.273 c 4.471,0 6.926,-1.869 6.926,-5.292 0,-2.882 -1.754,-5.058 -4.365,-5.492 l 5.145,-7.821 z M -88.79,33.04 -91.981,24.711 h 6.34 z m 6.116,-15.923 -2.14,5.179 h -7.987 l -2.095,-5.179 h -2.957 l 7.587,19.076 h 2.916 l 7.597,-19.076 z m -24.295,-0.353 h -1.555 l -3.811,8.415 -3.616,-8.415 h -1.402 l -8.213,18.958 h 3.189 l 5.873,-14.437 2.926,6.852 -3.199,7.585 h 2.732 l 1.945,-4.392 1.714,4.392 h 2.683 l -3.188,-7.355 3.188,-7.082 5.64,14.437 h 2.921 z m 105.968,-45.082 -3.054,-4.194 -2.97,4.194 h -1.973 l 3.977,-5.714 v -4.742 h 1.789 v 4.83 l 4.199,5.626 z m -21.851,0 v -1.424 h 3.808 v -9.032 h 1.789 v 9.032 h 3.807 v 1.424 z m -13.56,-5.679 c -0.405,0.314 -1.004,0.656 -1.835,1.047 -2.358,1.104 -2.714,1.445 -2.714,2.048 0,0.739 0.803,1.237 1.996,1.237 0.443,0 1.113,-0.091 1.524,-0.207 0.342,-0.099 0.569,-0.198 1.16,-0.507 l 0.15,-0.078 0.855,1.352 -0.176,0.093 c -0.664,0.35 -0.943,0.469 -1.42,0.611 -0.572,0.164 -1.254,0.251 -1.972,0.251 -2.366,0 -3.958,-1.149 -3.958,-2.859 0,-1.126 0.761,-1.966 2.544,-2.809 0.736,-0.356 1.269,-0.606 1.593,-0.757 0.149,-0.068 0.252,-0.117 0.309,-0.144 0.405,-0.206 0.715,-0.469 0.899,-0.761 0.095,-0.146 0.143,-0.355 0.143,-0.619 0,-0.853 -0.722,-1.343 -1.981,-1.343 -0.555,0 -1.088,0.085 -1.582,0.251 -0.388,0.134 -0.663,0.271 -1.28,0.64 l -0.145,0.086 -0.948,-1.293 0.176,-0.104 c 0.725,-0.432 1.043,-0.602 1.503,-0.764 0.642,-0.227 1.394,-0.347 2.174,-0.347 2.393,0 3.939,1.176 3.939,2.997 0,0.796 -0.357,1.536 -0.954,1.979 m -38.479,5.663 -3.212,-7.842 -3.333,7.842 h -1.912 l 4.569,-10.604 0.049,-0.111 h 1.101 l 4.438,10.459 0.109,0.256 z m 45.292,-10.493 h 1.789 v 10.455 h -1.789 z m -60.69,-0.091 h 1.789 v 10.455 h -1.789 z m -24.008,10.6 v -6.436 c 0,-1.213 -0.087,-1.513 -0.592,-2.009 -0.53,-0.535 -1.296,-0.817 -2.214,-0.817 -0.918,0 -1.684,0.282 -2.216,0.818 -0.503,0.495 -0.591,0.795 -0.591,2.008 v 6.436 h -1.761 v -6.818 c 0,-1.381 0.401,-2.238 1.382,-2.959 0.862,-0.634 1.969,-0.969 3.203,-0.969 1.241,0 2.314,0.326 3.186,0.969 0.983,0.722 1.366,1.552 1.366,2.959 v 6.818 z m 53.049,-10.422 v 1.356 h -4.862 v 3.249 h 3.918 v 1.355 h -3.918 v 2.966 h 4.731 v 1.355 h -6.363 V -38.74 Z m -36.037,-0.064 v 10.409 h -1.483 v -8.259 c -0.046,0.323 -0.218,0.73 -0.411,0.948 l -5.806,7.311 h -1.638 v -10.282 h 1.509 v 8.24 c 0.062,-0.28 0.193,-0.495 0.537,-0.946 l 5.809,-7.421 z m 46.707,8.712 c -0.347,0.256 -0.477,0.278 -1.659,0.278 h -1.612 v -3.376 h 1.612 c 1.055,0 1.267,0.045 1.722,0.43 0.388,0.344 0.557,0.753 0.557,1.313 0,0.603 -0.213,1.053 -0.62,1.355 m 0.923,-8.649 -2.71,4.198 h -1.484 v -4.198 h -1.636 v 10.282 h 3.464 c 2.473,0 3.827,-1.031 3.827,-2.924 0,-1.589 -0.97,-2.797 -2.407,-3.032 l 2.836,-4.326 z"
         id="path22" /></g><g
       transform="translate(110.6198,168.9528)"
       id="g52"
       style="fill:#95d500;fill-opacity:1"><path
         d="m 0,0 v 8.959 c -0.077,0 -0.156,0.009 -0.216,0.009 -4.699,0 -8.511,-3.857 -8.511,-8.623 0,-0.122 0.016,-0.237 0.016,-0.345 z"
         id="path54" /></g><g
       id="g60"
       transform="translate(117.0682,168.9528)"
       style="fill:#41b6e6;fill-opacity:1"><path
         d="m 0,0 v 8.959 c 0.074,0 0.147,0.009 0.214,0.009 4.703,0 8.51,-3.857 8.51,-8.623 C 8.724,0.223 8.713,0.108 8.709,0 Z"
         id="path62" /></g><g
       id="g64"
       transform="translate(76.3993,153.847)"
       style="fill:#41b6e6;fill-opacity:1"><path
         d="m 0,0 c 0,4.658 -3.717,8.434 -8.307,8.434 -0.068,0 -0.142,-0.009 -0.21,-0.009 V -7.034 c 0,-7.588 5.58,-11.19 11.666,-11.19 3.803,0 7.104,1.544 9.442,5.275 2.858,-3.731 6.158,-5.275 9.955,-5.275 6.089,0 11.675,3.602 11.675,11.19 V 8.386 H 25.725 V -4.973 c 0,-3.219 -1.459,-5.018 -4.439,-5.018 -2.985,0 -4.189,1.799 -4.189,5.018 V 8.386 H 8.598 V -4.973 c 0,-3.219 -1.206,-5.018 -4.182,-5.018 -2.98,0 -4.441,1.799 -4.441,5.018 z"
         id="path66" /></g><g
       id="g68"
       transform="translate(135.2769,144.9475)"
       style="fill:#95d500;fill-opacity:1"><path
         d="M 0,0 H -9.534 V 9.236 H 0 C 3.109,9.236 4.869,7.593 4.869,4.621 4.869,1.652 3.109,0 0,0 M 2.746,17.332 H -18.209 V -9.473 h 0.014 c 0.14,-4.617 3.864,-8.318 8.438,-8.318 0.077,0 0.151,0.006 0.223,0.006 v 8.905 0.789 h 12.28 c 6.601,0 10.095,5.181 10.095,12.712 0,7.523 -3.494,12.711 -10.095,12.711"
         id="path70" /></g></g></svg>